<?xml version="1.0" standalone="no"?>
<!DOCTYPE svg PUBLIC "-//W3C//DTD SVG 20010904//EN"
 "http://www.w3.org/TR/2001/REC-SVG-20010904/DTD/svg10.dtd">
<svg version="1.0" xmlns="http://www.w3.org/2000/svg"
 width="512.000000pt" height="512.000000pt" viewBox="0 0 512.000000 512.000000"
 preserveAspectRatio="xMidYMid meet">

<g transform="translate(0.000000,512.000000) scale(0.100000,-0.100000)"
fill="#fffff" stroke="none">
<path d="M2296 4510 c-266 -31 -491 -106 -671 -225 -79 -52 -201 -174 -255
-254 -56 -83 -103 -187 -135 -296 -38 -132 -33 -180 24 -209 17 -9 142 -27
315 -46 357 -39 351 -41 390 95 25 85 51 131 107 191 90 94 224 141 381 132
114 -7 188 -37 254 -102 83 -83 97 -133 102 -353 3 -157 2 -183 -11 -183 -44
0 -490 -53 -597 -71 -441 -74 -708 -208 -889 -450 -204 -270 -256 -668 -133
-1007 134 -364 464 -545 932 -512 298 21 502 112 729 326 74 70 95 85 102 73
18 -33 124 -176 161 -219 60 -69 166 -157 195 -163 44 -8 86 11 158 74 39 33
146 126 238 206 93 80 173 157 178 171 16 41 2 74 -73 178 -39 55 -86 131
-104 169 -63 131 -64 140 -64 871 0 841 -8 924 -104 1119 -121 244 -373 403
-743 470 -105 19 -377 27 -487 15z m512 -1947 c-4 -202 -8 -250 -26 -316 -50
-185 -170 -344 -309 -410 -62 -29 -77 -32 -163 -32 -84 0 -102 3 -152 28 -138
68 -206 215 -195 422 13 236 123 384 348 469 115 43 209 58 478 75 l23 1 -4
-237z"/>
</g>
</svg>
